<?xml version="1.0" encoding="utf-8"?>
<!-- Generator: Adobe Illustrator 24.1.0, SVG Export Plug-In . SVG Version: 6.00 Build 0)  -->
<svg version="1.1" id="Layer_1" xmlns="http://www.w3.org/2000/svg" xmlns:xlink="http://www.w3.org/1999/xlink" x="0px" y="0px"
	 viewBox="0 0 228 440" style="enable-background:new 0 0 228 440;" xml:space="preserve">
<style type="text/css">
	.st0{fill:#999999;}
</style>
<g id="Hand-Gray" transform="translate(-95 -246)">
	<g id="Group_2" transform="translate(120.176 262.525)">
		<path id="Path_2011" class="st0" d="M4.3,87.4c0.4,2.8-1.4,3.4-2.2,5C0.4,91,1.2,87.1,4.3,87.4z"/>
		<path id="Path_2012" class="st0" d="M19.4,91.3c-2.9,4-9.1,4.6-14.5,6.1C8.4,94.4,13.4,90,19.4,91.3z"/>
		<path id="Path_2013" class="st0" d="M86.2,170.2c6.8,10.7,11.5,23.4,16.2,36.1C93.5,197.7,89.5,184.2,86.2,170.2z"/>
		<path id="Path_2014" class="st0" d="M101.2,188.5c3.4,5.2,9.2,9.6,10.6,17.2c1.5,8.4-1,18.8,0.6,29.4c-2.2-2.8-0.2-11.6-3.9-11.1
			C110.8,208.8,106.4,197.9,101.2,188.5L101.2,188.5z"/>
		<path id="Path_2015" class="st0" d="M51.7,189.1c3.1,3.2,5.1,8.8,6.7,14.4c1.5,5.5,3.3,11.9,2.8,16.1
			C56,213.5,54.6,199.1,51.7,189.1L51.7,189.1z"/>
		<path id="Path_2016" class="st0" d="M41.1,193.5c5.7,3.5,6.5,11.6,8.9,17.8c2.5,6.5,6,11.7,9.5,16.7C48.6,221.6,42,208,41.1,193.5
			z"/>
		<path id="Path_2017" class="st0" d="M61.7,244.1c4.2-2,4.9,2.7,6.7,3.9C66.1,249,63.8,245.1,61.7,244.1z"/>
		<path id="Path_2018" class="st0" d="M109.6,247.9c1.1-0.5,1.1,2.8,1.7,1.1c4.1,15.9,7.4,32.6,11.1,48.9
			C116.7,282.7,111.5,267,109.6,247.9z"/>
		<path id="Path_2019" class="st0" d="M193.1,252.4c-1.3,36.1-15.3,64.3-19.5,99.4c-2.6-15.9,3.8-29.1,7.2-41.1
			C186.2,291.8,188.6,272.6,193.1,252.4L193.1,252.4z"/>
		<path id="Path_2020" class="st0" d="M8.2,285.2c8.7,20.1,19.2,39.4,31.2,57.8C25.3,327.4,13.5,309.5,8.2,285.2z"/>
		<path id="Path_2021" class="st0" d="M28.8,59.1c-1.5-16.8-6.3-35.2-11.1-50.6c-1.5,0.8,0.3,4.7-1.1,5.6c-9-0.2-15.8,4.6-22.3,5
			c-1.6-1.6,1.5-1.3,1.7-2.8c-1.4-2.9-3.6-4.9-5-7.8C-9.4,35.7-4.6,61.8-1.2,88c2.6,20.2,7.5,38.5,8.9,60c0.9,12.7,6.9,25,7.8,37.8
			c1.2,16.8,0.4,33.9,1.7,52.2c1.4,19.3,8.1,35.2,13.4,51.7c-32.9-25.9-2.9-114.5-41.8-134.4c2.2,8.3,4.1,21.9,6.7,31.7
			c-0.6,2.5-2.8-2.1-3.3-3.3c-1.6,1.6-3.8,2.5-5,4.4c1.4,8.6,1.1,18.9,1.1,28.9c4.7-1.8,16.1-3.1,20.6,0c-6.6,2.3-19-1.2-20,6.7
			c2.6,0.2,7-2.7,10-3.9c1.7,3.9-10.6,5.9-10,10.6c5,2,11-4.1,16.7-5c-3.2,4.9-9,7.3-13.9,10.6c12.4,37.5,18.6,76.4,40.7,102.8
			c10.8,12.9,24.3,23.3,35.6,36.1c11.7,13.2,15.5,30.7,22.3,48.9c-5.8-1.3-7.8-7.9-10-12.2c-7.5-14.7-15.8-29.5-26.2-42.2
			c-4.2-5.1-10.1-8.6-14.5-13.3C26.8,342.1,13.6,326.4,6,306.8c-2.3-6-3.6-13.3-5.6-20.6c-3.6-12.8-6.9-26.6-11.1-40
			c-2-6.3-5.8-12.5-6.7-18.9c-1.9-13.2,1.5-27.5-0.6-41.7c-0.5-3.9-2.7-8.3-3.9-12.8c-1.1-3.7-3.5-9-3.3-12.8
			c0.7-13.6,22.6-10.7,27.8-2.2c-3.9-27.9-9-70.5-13.4-102.8c-2.3-16.7-7.1-29.4-5.6-48.3c0.8-9.8,6.3-22.6,16.7-23.3
			c8.8-0.6,15.2,2.3,16.2,10C26.3,13,29.5,35.8,33.9,59.1c4.2,22.3,12.6,44.6,14.5,67.8c2.3-3.4,5.1-6.4,8.4-8.9
			c4.7,2.5,9.7,0.2,14.5,0.6c7.6,0.6,11,6.1,13.9,12.2c4.3,2.5,7.6-1.5,11.7-1.7c2.2-0.1,5.2,2,8.9,2.8c4.8,1,9,1.8,11.7,4.4
			c3.2,3.1,4,7.7,6.7,10.6c10.5-7.5,27.2-2.7,34,5.6c5.9,7.2,10.1,17.4,16.2,26.1c6,8.7,13.3,16.1,19.5,22.8c2,2.2,3.7,10,5,14.4
			c2.9,9.2,4.7,16.6,3.9,29.4c-2.2,36.1-18.7,76.6-16.1,112.2c0.8,11.1,6.7,21.1,6.7,32.2c-3.6-3-3.6-9.7-7.8-12.2
			c-2.7-12-7.8-24.5-6.1-41.1c1.3-12.3,7.7-26.7,10.6-42.8c2.7-15.2,5.8-31.7,6.7-46.7c0.6-10.7,0.6-27.9-3.9-37.8
			c-2.9-6.5-9.1-9.6-14.5-15.6c5.1,8.4,16.3,17.6,12.8,31.7c-1.6,6.4-5.8,13.2-8.4,18.9c-0.4-9.3,5.3-13.7,6.1-20.6
			c2.7-21-20.3-32-24.5-48.3c0.5-2.3,0.7-0.9,0-1.7c-1.5-1.7-3.6-8.6-5.6-11.7c-2.7-4-5.9-7.8-9.5-11.1c-8.7-1.1-13.1,2.1-18.9,3.9
			c3.7-3.3,7.8-6.3,15-6.1c-6.6-3.3-14.3,1-18.4,3.9c4.1,10.9,12,21.4,18.9,31.1c4.2,5.9,13.2,12.8,14.5,21.7
			c1.6,11-4.3,22.6-2.8,36.7c-5.4-15.9,4.3-34.8-4.5-46.1c-1.6-2-4.1-2.3-6.1-3.9c-2.5-2.1-4.8-4.6-6.7-7.2
			c-10.4-14.6-18.8-32.4-30.1-47.2c-7.4-1.1-11.9,3.1-17.3,2.2c2.1-3.1,8.3-2.1,10.6-5c-5.5-1.8-10.3,2-15.6,2.2
			c4.4,18.7,16,30.4,21.2,48.3c-2.8,0.2-3.6-2.6-6.1-1.1c-10.4-15-17.2-33.6-23.4-52.8c-4.2,0.4-10.5-1.5-16.2-0.6
			c-3.4,0.5-5.9,3.6-8.4,2.2c3.3-7.1,14.4-6.4,22.8-4.4c-0.5-4.7-5.7-1.9-9.5-2.2c-3.4-0.3-6.8-2.7-9.5-2.2
			c-11.4,1.8-8.8,25.7-4.5,35.6c1.5,3.3,4.7,5.1,5,7.8c-1.4,0.1-1.7-0.9-2.8-1.1c1.5,3.5,6.5,3.5,6.1,8.9
			c-9.2-0.8-11.8-10.3-14.5-20c-4.7-17.1-6.4-41.6-10-58.3c-0.4,10.1,2.2,21.8,3.9,33.3c1.7,11.3,3.7,22.9,5.6,33.3
			c-7.1-18.3-8.7-42.1-12.3-63.9c-6.6,4.1-18.3,6-26.2,1.7c10-3,25.2-0.8,26.7-12.2c-9.4-0.7-20.7-1.8-27.8,1.1
			c5.9-6.9,15.2-3.7,26.2-5c-2.4-6.8-13.6-5.6-20-3.9c-3.8,1-6,3.7-9.5,3.3C4,82.5,8.1,81,11,79.6c5.2-2.5,11.4-4.1,20.6-3.3
			c-3.6-13.2-6.9-26.8-10-40.6c-8.3,0.1-16.6,3.1-23.4,2.8c3.1-6,14.3-6,22.3-5.6c0.7-1.1-0.6-4.9-1.1-6.7c-0.2-1,0.5-1.1,0.6-0.6
			c2,2.1,1.4,6.7,3.9,8.3C24,41.7,26.6,51.7,28.8,59.1z M-0.1-10.9C-8.7-7.7-6.2,5.3-1.2,11.9c1.2-6,11.9-6.3,15.6-2.2
			C16.2-4,11.3-15.2-0.1-10.9z M2.1,12.4c3-1.2,7.9-0.7,11.1-1.7C10,8.6,3.2,8.3,2.1,12.4z M-15.2,179.6c1.1-1.2,2.8-1.8,4.5-1.7
			c-0.5-7.9-2.6-14.1-4.5-20.6C-26.4,158.6-15.9,173.4-15.2,179.6L-15.2,179.6z"/>
	</g>
</g>
</svg>
